<svg id="visual" viewBox="0 0 900 450" width="900" height="450" xmlns="http://www.w3.org/2000/svg" xmlns:xlink="http://www.w3.org/1999/xlink" version="1.1"><rect x="0" y="0" width="900" height="450" fill="#001220"></rect><defs><linearGradient id="grad1_0" x1="50%" y1="100%" x2="100%" y2="0%"><stop offset="10%" stop-color="#001220" stop-opacity="1"></stop><stop offset="90%" stop-color="#001220" stop-opacity="1"></stop></linearGradient></defs><defs><linearGradient id="grad2_0" x1="0%" y1="100%" x2="50%" y2="0%"><stop offset="10%" stop-color="#001220" stop-opacity="1"></stop><stop offset="90%" stop-color="#001220" stop-opacity="1"></stop></linearGradient></defs><g transform="translate(900, 450)"><path d="M-270 0C-270.1 -38.6 -270.2 -77.2 -249.4 -103.3C-228.7 -129.4 -186.9 -143 -157 -157C-127 -170.9 -108.8 -185.3 -84.6 -204.2C-60.4 -223.1 -30.2 -246.5 0 -270L0 0Z" fill="#6600FF"></path></g><g transform="translate(0, 0)"><path d="M270 0C271 40.3 272 80.5 249.4 103.3C226.9 126.1 180.9 131.4 154.9 154.9C128.8 178.3 122.7 219.8 100.3 242.1C77.8 264.3 38.9 267.1 0 270L0 0Z" fill="#6600FF"></path></g></svg>