<svg id="visual" viewBox="0 0 900 450" width="900" height="450" xmlns="http://www.w3.org/2000/svg" xmlns:xlink="http://www.w3.org/1999/xlink" version="1.1"><rect x="0" y="0" width="900" height="450" fill="#001220"></rect><defs><linearGradient id="grad1_0" x1="50%" y1="0%" x2="100%" y2="100%"><stop offset="10%" stop-color="#001220" stop-opacity="1"></stop><stop offset="90%" stop-color="#001220" stop-opacity="1"></stop></linearGradient></defs><defs><linearGradient id="grad2_0" x1="0%" y1="0%" x2="50%" y2="100%"><stop offset="10%" stop-color="#001220" stop-opacity="1"></stop><stop offset="90%" stop-color="#001220" stop-opacity="1"></stop></linearGradient></defs><g transform="translate(900, 0)"><path d="M0 405C-57.1 403.4 -114.2 401.7 -155 374.2C-195.7 346.6 -220.1 293.1 -253.1 253.1C-286.2 213.2 -328 186.9 -354.8 147C-381.5 107 -393.3 53.5 -405 0L0 0Z" fill="#6600FF"></path></g><g transform="translate(0, 450)"><path d="M0 -405C39.4 -365.9 78.9 -326.7 129.3 -312.3C179.8 -297.8 241.3 -308.1 285.7 -285.7C330 -263.2 357.1 -208.1 374.2 -155C391.2 -101.9 398.1 -51 405 0L0 0Z" fill="#6600FF"></path></g></svg>